    <svg
      xmlns="http://www.w3.org/2000/svg"
      width="2253.333"
      height="1180"
      version="1"
      viewBox="0 0 1690 885"
    >
      <path
        d="M9669 7572c-9-9-19-39-22-67-4-27-23-101-43-163-31-93-41-113-60-118-12-3-30-14-40-25-17-19-16-21 4-49 23-31 23-35-13-115-13-27-26-66-30-85-10-47-22-60-56-60-24 0-59-22-59-37 0-3 13-20 29-39l30-33-21-61c-24-72-19-93 19-88 20 2 32 12 43 35 8 18 20 32 25 32 12 0 113-120 144-171 12-21 29-38 37-38 20 0 54 32 54 50 0 23-59 105-139 194-39 43-71 82-71 86 0 34 79 250 91 250 11 0 93-110 136-184 21-36 43-67 50-70 15-6 63 31 63 50 0 32-125 217-188 277l-29 28 46 141c26 78 52 143 58 145 13 5 116-153 175-266 33-63 47-81 63-81 21 0 55 28 55 45 0 22-117 232-170 305-14 19-29 41-35 49-52 72-113 98-146 63zM5383 7553c-30-20-29-29 7-70 26-29 30-41 30-94 0-77-25-202-53-259-12-25-22-58-23-75-1-31-72-313-100-397-19-58-11-90 19-86 31 4 60 71 92 213 38 173 56 235 69 235 18 0 145-64 206-104 30-20 57-36 60-36s13 13 23 29c17 29 17 29-15 56-17 14-81 51-142 82-61 30-113 57-115 59s6 41 17 86c11 46 24 118 28 161s10 79 14 82c9 6 161-66 208-99 21-14 43-26 49-26 17 0 42 40 37 55-9 23-110 83-200 119-47 20-91 42-98 50-6 7-22 16-36 19-14 2-32 7-40 10s-25-1-37-10zM9027 7534c-26-20-48-42-48-48-1-6-2-15-3-21-1-14-99-229-106-235-4-3-34-75-69-160s-83-195-108-244c-24-49-42-95-39-102 8-21 30-17 54 9 23 24 112 207 157 325 15 39 34 72 41 72s22-12 34-27c22-27 22-33 16-223-3-107-2-213 2-235 7-36 10-40 41-43 18-2 38 1 43 6s5 41-1 90c-6 45-8 132-4 195l6 114 35 1c38 2 137 63 214 132 37 34 39 37 39 100 1 125-63 241-171 314-40 26-81 20-133-20zm131-72c60-46 111-169 97-234-6-27-94-111-145-138-29-15-77 15-91 57-8 25-16 33-35 33-16 0-28 8-36 25-9 21-3 40 52 152 34 70 67 131 72 134 16 10 50-2 86-29zM4873 7503c-18-16-41-100-60-218-3-16-9-37-13-45-5-9-13-69-20-135-6-66-20-162-31-214-22-107-25-201-7-219s46-14 58 7c5 11 10 50 10 88 0 37 5 84 10 103 6 19 17 105 25 190 14 147 29 238 61 377 8 34 14 67 14 73 0 16-26 12-47-7zM6793 7473c-27-10-11-107 44-272 27-82 33-113 28-145-3-23-6-61-6-85 0-25-15-87-35-145-20-56-40-117-46-136-5-19-14-39-19-45-13-13-11-28 5-50 14-19 15-19 35-1 17 15 125 319 145 407 6 27 77 127 157 220 84 99 119 184 82 196-15 5-50-31-82-85-13-22-37-55-53-74-16-18-48-57-70-85-41-54-58-59-58-20 0 12-14 55-30 95-17 39-36 108-42 152-12 81-18 88-55 73zM8123 7440c-16-7-24-23-33-67-6-32-25-114-40-183-38-163-45-239-31-330 23-144 128-245 236-224 80 15 190 166 246 338 17 55 49 137 70 182 22 46 39 90 39 98 0 20-16 29-40 21-30-10-52-57-130-282-37-108-80-187-136-251-50-58-71-63-121-33-67 41-111 170-99 285 4 34 25 144 47 244 22 101 38 190 35 198-6 16-12 16-43 4zM7552 7389c-48-24-151-139-182-204-24-49-25-107-4-195 17-73 46-128 110-212 48-62 51-68 30-68-24 0-29-20-10-41 11-12 30-19 54-19 20 0 41-5 48-12 18-18 66 7 59 31-3 14 7 28 39 51 52 37 92 101 111 179 28 112 9 323-38 416-43 87-133 117-217 74zm119-62c68-45 111-222 90-364-15-99-44-159-100-201l-44-33-35 33c-91 87-172 243-172 332 0 67 99 212 164 241 44 19 59 18 97-8zM5491 6121c-15-12-22-24-18-34 7-18-31-174-61-252-15-39-28-54-56-68-39-19-45-41-21-73 20-27 19-39-14-108-15-34-31-74-35-91-10-41-24-55-55-55-29 0-51-16-51-36 0-7 12-27 27-44l26-32-21-66c-12-36-19-69-16-74 17-27 78 7 98 55 3 8 15 1 32-18 70-79 98-113 118-147 11-21 28-38 37-38 14 0 59 35 59 46 0 21-95 149-171 230l-48 52 24 80c14 43 34 101 46 127l21 47 24-23c13-12 50-63 83-113 93-140 84-131 107-116 43 27 47 47 17 98-42 71-95 145-147 204-25 29-45 57-44 63 41 136 93 275 102 272 17-5 96-124 160-241 48-87 62-106 81-106 13 0 29 10 38 23 14 22 13 28-23 98-69 136-146 253-214 327-34 37-69 41-105 13zM6368 6122c-16-9-28-24-28-33s-38-95-85-192l-85-177h-45c-38 0-45-3-45-20 0-11 9-25 20-32s20-17 20-23c0-5-29-57-65-115-93-149-129-280-76-280 26 0 37 17 55 87 8 35 25 82 37 105 31 63 93 158 102 158 5 0 29-17 54-37l46-37-7-71c-4-38-9-81-10-95-2-14-7-68-10-120-8-109-1-130 37-113 27 13 37 50 37 148 0 70 18 224 28 239 4 6 7 36 7 66 0 69 32 323 51 410 18 82 18 150 2 150-7 0-25-8-40-18zM4848 6079c-27-23-48-49-48-60s-17-57-39-102c-80-169-109-235-154-347-25-63-66-155-91-204-45-88-47-105-10-106 27 0 80 94 159 283 32 75 61 137 65 137 3 0 17-12 31-26 26-28 26-28 21-347-2-75 0-142 3-147 7-12 82-13 89-2 3 4 0 39-6 78-7 43-8 117-3 195l7 126 35 1c20 1 45 8 57 17 12 8 44 31 71 50 108 76 118 87 123 147 8 101-41 223-119 293-76 69-124 72-191 14zm150-82c48-45 74-102 80-172 4-59 4-61-33-98-38-38-117-97-130-97-20 0-64 44-70 70-5 22-12 30-29 30-27 0-46 18-46 44 0 22 116 257 132 267 17 11 59-9 96-44zM8324 6103c-12-2-26-15-32-29-7-14-20-24-32-24-28 0-34-22-22-73 10-37 7-55-19-142-17-55-41-137-54-181-12-45-28-90-33-101-31-58-71-289-57-332 8-26 16-26 44-3 16 13 23 35 31 96 12 93 31 176 70 301 16 50 34 109 40 133 6 23 14 42 18 42 7 0 46-118 108-327l27-92-22-90c-17-71-19-95-11-112 10-18 14-19 33-6 19 12 39 41 50 72 2 6 9 5 19-2 11-10 19-9 36 3 27 19 27 29 1 89-23 52-22 97 7 204 83 313 128 507 120 520-11 17-66-9-70-32-35-183-53-262-74-316-13-36-28-83-32-104-8-39-16-54-25-45-3 2-28 76-55 163-54 168-70 245-52 245 6 0 12-6 15-12 11-29 27 47 20 91-4 25-7 50-8 55 0 12-14 14-41 9zM7712 6053c-14-13-25-46-36-108-10-49-23-110-31-135s-19-94-25-155c-6-60-20-156-30-213-32-166-26-232 22-232 27 0 38 32 38 107 0 37 4 83 9 101 6 18 17 104 26 190 15 151 43 318 65 392 20 69 5 90-38 53zM6896 6027c-10-8-30-60-50-137-35-131-125-402-158-476-11-25-30-50-46-58-27-14-40-50-21-62 5-3 7-20 3-39-4-21-1-35 6-40 16-10 57 13 63 35 4 17 9 17 72 4 82-17 119-9 222 48 91 49 168 119 212 192 29 48 34 67 38 138 4 69 1 93-16 140-28 73-77 136-159 204-56 46-71 54-94 48-17-3-28-1-28 5 0 15-22 14-44-2zm141-131c32-30 74-80 93-112 32-54 35-64 35-139 0-69-4-86-27-126-38-65-108-125-191-165-77-37-103-40-173-23-54 14-54 7 4 155 21 55 63 180 92 277 52 172 57 182 97 186 7 0 38-23 70-53zM8955 5955c-133-72-208-204-206-360 1-73 5-88 43-165 50-102 122-182 184-206 39-15 54-15 117-5 79 13 130 42 172 96 14 19 25 45 25 59s4 26 10 26c5 0 17 11 26 25 15 23 14 26-9 57-13 18-31 53-39 78-14 43-16 45-60 50-28 4-59 16-81 33-43 33-87 43-116 28-41-23-26-47 55-87 42-21 92-52 110-69 30-29 34-38 34-83 0-67-13-98-52-122-45-27-128-36-164-17-45 24-97 85-145 167-40 71-43 79-43 155 0 64 5 91 26 135 53 116 117 160 235 160 79 0 124-12 170-46 41-31 61-30 75 1s-5 55-70 86c-35 17-69 23-146 26-94 4-104 3-151-22zM11238 4672c-16-9-28-24-28-33 0-13-122-280-159-349-5-9-26-16-55-18-38-3-46-7-46-22 0-11 9-25 20-32 27-17 26-28-15-89-63-92-103-172-119-236-18-67-14-93 14-93 25 0 36 17 54 87 8 35 25 82 37 105 31 63 93 158 102 158 5 0 29-17 54-37l45-37-7-70c-4-39-8-82-10-96s-6-68-10-120c-7-109 0-130 38-113 27 13 37 50 37 148 0 70 18 224 28 239 4 6 7 36 7 66 0 69 32 323 51 410 18 82 18 150 2 150-7 0-25-8-40-18zM4633 4668c-40-19-27-43 40-77 34-17 72-39 84-48 25-20 29 10-35-283-48-222-101-537-94-559 4-12 49-5 70 12 6 5 12 28 12 51 0 22 7 79 16 126 8 47 23 137 34 200 17 105 78 389 86 399 6 7 110-67 160-113l48-46 23 22c13 12 23 29 23 39 0 20-82 96-146 136-25 15-58 38-74 51-15 12-33 22-39 22s-38 18-72 40c-63 41-96 47-136 28zM8800 4662c-30-24-18-43 43-70 29-12 65-33 82-46l29-23-37-159c-20-88-46-211-57-274-12-63-27-146-34-185-8-38-17-103-21-143l-6-73 28 6c51 12 53 14 53 54 0 35 15 126 66 411 13 76 59 284 70 318 6 20 74-21 149-90l63-58 26 25c14 13 26 28 26 33 0 17-117 119-179 157-34 20-61 41-61 46s-8 9-17 9c-10 0-46 18-81 40-69 44-108 50-142 22zM5438 4648c-11-9-18-39-22-103-9-132-16-151-52-147-16 2-38-4-49-11-17-13-18-18-7-41 6-15 20-26 31-26 26 0 41-21 36-51-2-13-16-91-30-174-31-180-38-358-15-362 24-5 39 30 45 104 3 37 10 102 15 143 32 254 37 280 50 280 15 0 107-78 130-110 12-17 23-41 23-53 1-24-26-176-49-275-15-64-13-82 10-82 28 0 54 46 65 115 6 39 22 129 35 200 47 257 58 332 63 454l6 124-29-7c-16-4-29-8-30-9s-7-58-13-127c-14-147-30-250-40-250-3 0-29 18-56 41-27 22-62 47-77 55-33 17-33 16-10 159 24 153 17 189-30 153zM11744 4653c-12-2-26-15-32-28s-21-25-34-27c-24-3-24 0-17-108 2-30-38-174-97-350-56-164-87-331-70-369 11-26 18-26 45-3 16 13 23 35 31 96 11 89 31 174 66 286 12 41 30 101 39 133 9 31 20 57 24 57 5 0 13-17 19-37 5-21 34-114 62-207l53-169-17-76c-10-42-20-85-23-96-2-11 2-29 11-40 14-20 15-20 40 4 14 14 26 29 26 35s4 17 9 25c7 11 13 12 23 3 11-9 19-8 36 4 27 19 27 29 1 89-25 56-22 98 17 240 56 208 116 466 110 480-8 22-65-1-70-28-35-183-53-262-74-316-13-36-28-83-32-104-8-39-16-54-25-45-3 3-28 77-56 164-53 169-69 244-51 244 6 0 12-6 15-12 11-29 27 47 20 91-4 25-7 52-6 59 1 12-4 13-43 5zM6815 4635c-69-25-91-59-99-158-6-75-4-94 16-153 24-71 35-81 183-187 49-35 85-96 85-143 0-56-47-118-115-153-41-22-67-27-160-31-103-5-110-6-113-26-5-37 23-54 91-54 117 0 220 41 294 117 86 89 101 150 58 241-19 40-22 58-15 72 11 20 8 24-30 33-14 4-47 24-74 47-26 22-58 40-71 40-59 0-105 138-79 238 14 51 92 64 216 36 61-14 77-23 114-60 23-24 47-44 52-44 6 0 15 14 21 32 23 64-43 124-171 153-82 19-150 19-203 0zM9595 4636c-22-9-52-29-67-46-29-31-33-57-29-193 1-46 23-118 45-145 5-8 48-40 95-73 147-103 180-189 106-276-56-66-111-87-240-93-96-4-110-7-113-23-7-37 26-57 92-57 156 0 293 77 356 199 26 53 25 97-4 162-17 37-22 58-16 69 11 20 4 30-21 30-9 0-40 18-68 40s-68 46-89 53c-28 9-42 22-56 52-24 49-32 132-17 178 19 58 95 72 215 41 76-20 108-39 130-75 21-36 39-37 54-4 18 38 15 51-19 90-56 64-261 105-354 71zM6262 4603c-18-16-33-74-59-218-3-16-9-37-13-45s-13-67-19-130c-7-63-21-161-31-218-32-166-26-232 22-232 27 0 38 32 38 107 0 37 5 84 10 103 6 19 17 105 25 190 15 152 32 258 61 372 7 32 14 65 14 73 0 20-23 19-48-2zM8352 4603c-13-12-26-50-41-118-12-55-26-113-31-130-5-16-16-93-25-170-8-77-22-169-30-205-18-80-19-192-3-208 18-18 46-14 58 7 5 11 10 47 10 80 0 34 7 100 15 148 8 49 19 141 25 205 5 64 22 170 36 235 13 65 27 130 31 146 7 32-14 37-45 10zM6189 3222c-9-9-20-42-23-72-4-30-24-104-44-165-31-90-41-111-59-113-11-2-29-12-39-23-17-19-17-21 4-49 23-31 23-35-13-115-13-27-26-66-30-85-10-46-22-60-52-60s-63-17-63-32c0-5 13-25 29-44l30-33-21-61c-24-72-19-93 19-88 20 2 32 12 43 35 8 18 20 32 25 32 12 0 113-120 144-171 12-21 29-38 37-38 20 0 54 32 54 50 0 21-42 83-109 159-31 35-66 76-79 92l-23 28 21 73c26 91 61 178 71 178 11 0 93-110 136-184 21-36 43-67 50-70 15-6 63 31 63 49 0 32-128 221-188 278l-29 28 39 122c48 149 55 167 67 167s121-169 173-269c44-86 67-100 102-65 23 22 20 40-14 96-16 26-30 53-30 58 0 9-12 30-92 155-87 135-156 182-199 137zM9860 3233c-22-9-40-30-40-46 0-8-38-93-85-190l-85-177h-45c-52 0-60-18-23-57l21-23-31-47c-67-104-111-191-126-250-18-67-14-93 14-93 25 0 36 17 54 87 8 35 25 82 37 105 31 63 93 158 102 158 5 0 29-17 54-37l46-37-8-71c-4-38-8-81-10-95-10-85-16-202-10-219 7-24 24-27 49-8 15 11 19 32 23 103 5 115 22 264 31 278 3 6 7 36 7 66 1 72 33 327 51 410 26 120 19 160-26 143zM11059 3222c-9-9-20-42-23-72-4-30-24-104-44-165-31-91-41-111-58-113-12-2-30-12-40-23-17-19-17-21 4-49 23-31 23-35-13-115-13-27-26-66-30-85-10-46-22-60-52-60s-63-17-63-32c0-5 14-26 31-45 20-23 28-41 24-52-43-103-42-134 2-129 20 2 32 12 43 35 8 18 20 32 25 32 12 0 113-120 144-171 12-21 29-38 37-38 20 0 54 32 54 50 0 21-42 83-109 159-31 35-66 76-79 92l-23 28 21 73c26 91 61 178 71 178 16 0 159-205 159-228 0-6 9-16 19-21 14-8 25-6 45 10 14 11 26 27 26 34 0 31-128 222-184 274-14 14-26 31-26 38 0 14 63 218 80 261 5 12 14 22 19 22 12 0 116-162 172-267 34-65 49-83 66-83 24 0 53 24 53 44 0 24-109 221-170 306-86 122-140 155-181 112zM8163 3203c-29-20-29-26 6-65 15-18 30-46 33-62 12-64-38-316-62-316-6 0-10-15-10-32 0-38-70-324-102-416-20-57-21-64-6-79 41-40 74 19 118 212 18 77 36 155 40 174 14 57 23 58 102 20 40-18 92-48 118-65 25-17 52-33 62-37 18-6 48 21 48 45 0 20-67 63-190 124-52 25-96 47-98 48-1 2 9 50 22 107 14 57 27 130 29 162 3 32 6 60 8 62 8 7 156-62 202-94 25-17 50-31 56-31 10 0 41 39 41 51 0 18-124 93-207 126-52 20-93 42-93 50s-12 13-29 13-33 5-36 10c-9 14-26 12-52-7zM9026 3185c-25-20-47-41-48-48 0-7-2-17-2-22-2-14-99-228-106-235-4-3-35-75-69-160-35-85-84-197-109-248-48-96-48-122-3-107 22 7 113 183 177 342 16 40 34 73 41 73 6 0 21-12 33-27 22-27 22-33 16-205-4-97-4-204 0-237l7-61h38c21 0 40 4 44 9 3 6 1 50-5 98-6 51-7 132-2 192l7 105 35 3c36 4 141 70 212 133 38 34 39 37 39 100 0 126-63 242-171 314-40 26-82 20-134-19zm130-70c65-49 118-187 95-247-9-24-77-86-133-122-26-17-29-17-57 0-18 11-36 32-42 51-8 25-16 33-35 33-16 0-28 8-36 24-9 22-3 41 53 155 60 124 65 131 93 131 16 0 44-11 62-25zM6883 3203c-12-2-29-15-37-29-9-13-22-24-29-24-32-1-38-15-26-68 9-45 8-62-11-125-12-39-25-81-30-93-4-11-18-56-29-100-12-43-26-88-30-99-26-65-58-195-66-270-5-45-3-65 8-80 15-20 16-20 41 4 19 18 26 35 26 60 0 41 23 162 44 236 58 201 82 275 88 275 4 0 11-15 17-32 5-18 34-114 65-213l56-179-26-84c-23-78-24-85-9-108 15-24 16-24 40-7 13 10 27 30 30 46 7 30 15 33 33 15 10-10 18-7 36 12l25 25-26 59c-29 71-31 59 61 420 53 207 75 316 64 316-3 0-19-5-36-11-28-10-31-15-42-82-15-95-43-208-70-282-12-33-24-75-28-94s-12-36-17-38c-10-3-75 189-112 331-16 61-12 97 7 66 16-26 31 37 24 102-4 32-9 57-13 57-3-1-16-4-28-6zM10264 3195c-4-8-12-15-19-15-19 0-25-25-13-57 9-23 4-46-27-138-31-94-90-293-114-390-4-16-29-74-55-128s-45-105-42-113c14-37 58-1 99 82 30 60 53 125 102 294 19 69 48 158 62 198 26 73 27 73 40 48 7-14 20-53 28-88 39-161 46-175 79-162 17 7 96 106 177 223 25 36 52 67 61 69 13 2 13-6 2-75-7-44-20-105-29-136-9-32-18-72-20-90-2-17-8-63-14-102-6-38-16-101-22-140-6-38-15-87-20-107-6-24-6-45 2-62 36-79 84 28 104 234 4 36 19 144 35 240s35 211 42 254c8 54 19 85 32 98 20 18 20 18 0 39-31 30-67 16-111-44-47-63-72-95-150-191-34-42-64-82-67-89-7-19-23 9-30 54-3 21-22 75-42 119-26 59-35 93-33 124 2 23-1 47-5 54-10 17-45 15-52-3zM5435 3100c-2-4-9-29-15-56s-30-112-55-189c-54-170-110-376-126-468-11-60-11-70 4-84 15-16 18-15 42 7 14 13 25 35 25 49s4 42 9 61 19 79 31 133c21 92 24 98 44 92 44-14 162-35 193-35 49 0 99 51 144 144 44 89 50 150 24 213-21 50-40 69-108 109-55 32-65 34-134 32-41-1-76-5-78-8zm158-66c74-37 107-88 107-162 0-50-30-122-73-175l-23-27-79 10c-89 11-125 30-125 64s56 218 81 266c17 33 26 40 51 40 16 0 43-7 61-16zM4772 3039c-23-12-53-33-66-48-113-125-136-165-137-237-1-115 39-221 122-321 54-65 58-73 29-73-22 0-25-12-10-41 7-13 21-19 45-19 19 0 46-5 59-12 22-9 29-8 46 7 11 10 17 22 14 27s21 34 54 64c80 72 106 142 108 292 2 178-34 299-107 351-51 37-96 40-157 10zm122-70c59-51 80-121 80-274 1-185-25-251-120-298l-31-16-45 52c-105 122-155 233-146 327 7 73 96 196 163 226 45 20 61 17 99-17zM8331 1764c-86-23-167-72-230-140-275-293-113-760 287-825 182-30 367 52 479 213 166 238 76 585-183 714-109 54-241 68-353 38zm267-129l42-17v-138l-182-2-183-3v-180l183-3 182-2v-190l-182-2-183-3-1-62c0-34-3-65-7-69-3-4-35 22-70 57-124 125-149 289-67 449 38 74 127 146 216 174 63 20 193 16 252-9zM11580 1530v-80h890v160h-890v-80zM11580 1105v-95h890v190h-890v-95z"
        transform="matrix(.1 0 0 -.1 0 885)"
      ></path>
    </svg>